<svg xmlns="http://www.w3.org/2000/svg" viewBox="0 0 1920 800" width="1920" height="800">
  <rect width="1920" height="800" fill="#f5f5f0"/>

  <!-- Circuit traces -->
  <g stroke="#7a621b" stroke-opacity="0.3" fill="none" stroke-width="1.2">
    <!-- Top band -->
    <polyline points="0,80 140,80 140,140 280,140"/>
    <polyline points="280,140 280,80 440,80 440,140 600,140"/>
    <polyline points="600,140 600,80 740,80 740,140 900,140"/>
    <polyline points="900,140 900,80 1060,80 1060,140 1200,140"/>
    <polyline points="1200,140 1200,80 1320,80 1320,130"/>

    <!-- Upper mid -->
    <polyline points="0,280 160,280 160,240 320,240 320,300 480,300"/>
    <polyline points="480,300 480,240 640,240 640,300 780,300"/>
    <polyline points="780,300 780,240 940,240 940,300 1080,300"/>
    <polyline points="1080,300 1080,240 1220,240 1220,290 1320,290"/>

    <!-- Lower mid -->
    <polyline points="0,520 160,520 160,560 320,560 320,500 480,500"/>
    <polyline points="480,500 480,560 640,560 640,500 780,500"/>
    <polyline points="780,500 780,560 940,560 940,500 1080,500"/>
    <polyline points="1080,500 1080,560 1220,560 1220,530 1320,530"/>

    <!-- Bottom band -->
    <polyline points="0,700 140,700 140,740 280,740"/>
    <polyline points="280,740 280,700 440,700 440,740 600,740"/>
    <polyline points="600,740 600,700 740,700 740,740 900,740"/>
    <polyline points="900,740 900,700 1060,700 1060,740 1200,740"/>
    <polyline points="1200,740 1200,700 1320,700 1320,730"/>

    <!-- Vertical connections -->
    <polyline points="140,140 140,280"/>
    <polyline points="480,140 480,240"/>
    <polyline points="780,140 780,240"/>
    <polyline points="140,520 140,700"/>
    <polyline points="480,560 480,700"/>
    <polyline points="780,560 780,700"/>

    <!-- Connections to phone area -->
    <polyline points="1320,130 1320,290"/>
    <polyline points="1320,530 1320,730"/>
  </g>

  <!-- Pads -->
  <g fill="#7a621b" fill-opacity="0.45">
    <rect x="137" y="137" width="7" height="7" rx="1"/>
    <rect x="277" y="137" width="7" height="7" rx="1"/>
    <rect x="437" y="137" width="7" height="7" rx="1"/>
    <rect x="597" y="137" width="7" height="7" rx="1"/>
    <rect x="737" y="137" width="7" height="7" rx="1"/>
    <rect x="897" y="137" width="7" height="7" rx="1"/>
    <rect x="1057" y="137" width="7" height="7" rx="1"/>
    <rect x="157" y="277" width="7" height="7" rx="1"/>
    <rect x="317" y="297" width="7" height="7" rx="1"/>
    <rect x="477" y="297" width="7" height="7" rx="1"/>
    <rect x="637" y="297" width="7" height="7" rx="1"/>
    <rect x="777" y="297" width="7" height="7" rx="1"/>
    <rect x="937" y="297" width="7" height="7" rx="1"/>
    <rect x="1077" y="297" width="7" height="7" rx="1"/>
    <rect x="1217" y="287" width="7" height="7" rx="1"/>
    <rect x="157" y="517" width="7" height="7" rx="1"/>
    <rect x="317" y="497" width="7" height="7" rx="1"/>
    <rect x="477" y="497" width="7" height="7" rx="1"/>
    <rect x="637" y="497" width="7" height="7" rx="1"/>
    <rect x="777" y="497" width="7" height="7" rx="1"/>
    <rect x="937" y="497" width="7" height="7" rx="1"/>
    <rect x="1077" y="497" width="7" height="7" rx="1"/>
    <rect x="1217" y="527" width="7" height="7" rx="1"/>
    <rect x="137" y="697" width="7" height="7" rx="1"/>
    <rect x="277" y="697" width="7" height="7" rx="1"/>
    <rect x="437" y="697" width="7" height="7" rx="1"/>
    <rect x="597" y="697" width="7" height="7" rx="1"/>
    <rect x="737" y="697" width="7" height="7" rx="1"/>
    <rect x="897" y="697" width="7" height="7" rx="1"/>
    <rect x="1057" y="697" width="7" height="7" rx="1"/>
    <rect x="1317" y="287" width="7" height="7" rx="1"/>
    <rect x="1317" y="527" width="7" height="7" rx="1"/>
    <rect x="1317" y="137" width="7" height="7" rx="1"/>
    <rect x="1317" y="727" width="7" height="7" rx="1"/>
  </g>

  <!-- Traces connecting to phone -->
  <g stroke="#7a621b" stroke-opacity="0.4" fill="none" stroke-width="1.5">
    <polyline points="1320,130 1360,130 1360,290 1320,290"/>
    <polyline points="1320,530 1360,530 1360,730 1320,730"/>
    <polyline points="1360,130 1360,290"/>
    <polyline points="1360,290 1410,290 1410,130 1450,130 1450,290"/>
    <polyline points="1360,530 1410,530 1410,730 1450,730 1450,530"/>
  </g>

  <!-- Pads near phone -->
  <g fill="#7a621b" fill-opacity="0.55">
    <rect x="1357" y="127" width="7" height="7" rx="1"/>
    <rect x="1357" y="287" width="7" height="7" rx="1"/>
    <rect x="1357" y="527" width="7" height="7" rx="1"/>
    <rect x="1357" y="727" width="7" height="7" rx="1"/>
    <rect x="1407" y="287" width="7" height="7" rx="1"/>
    <rect x="1407" y="127" width="7" height="7" rx="1"/>
    <rect x="1407" y="527" width="7" height="7" rx="1"/>
    <rect x="1407" y="727" width="7" height="7" rx="1"/>
    <rect x="1447" y="127" width="7" height="7" rx="1"/>
    <rect x="1447" y="287" width="7" height="7" rx="1"/>
    <rect x="1447" y="527" width="7" height="7" rx="1"/>
    <rect x="1447" y="727" width="7" height="7" rx="1"/>
  </g>

  <!-- Phone body -->
  <rect x="1480" y="100" width="320" height="600" rx="40" fill="#f5f5f0" stroke="#7a621b" stroke-width="3"/>
  <!-- Screen inset -->
  <rect x="1500" y="150" width="280" height="520" rx="16" fill="none" stroke="#7a621b" stroke-width="1" stroke-opacity="0.4"/>
  <!-- Camera -->
  <circle cx="1640" cy="135" r="6" fill="none" stroke="#7a621b" stroke-width="2"/>
  <!-- Home bar -->
  <rect x="1580" y="660" width="120" height="6" rx="3" fill="none" stroke="#7a621b" stroke-width="2.5"/>
  <!-- Side buttons left -->
  <rect x="1476" y="270" width="4" height="40" rx="2" fill="#7a621b" opacity="0.5"/>
  <rect x="1476" y="330" width="4" height="40" rx="2" fill="#7a621b" opacity="0.5"/>
  <!-- Side button right -->
  <rect x="1800" y="300" width="4" height="60" rx="2" fill="#7a621b" opacity="0.5"/>

  <!-- Notification card on screen -->
  <rect x="1516" y="180" width="248" height="130" rx="12" fill="#fff" stroke="#7a621b" stroke-width="1.8"/>

  <!-- App icon with bell -->
  <rect x="1526" y="192" width="38" height="38" rx="8" fill="none" stroke="#7a621b" stroke-width="1.5"/>
  <path d="M1545,200c-2,0-3.5,1.5-3.5,3.5v2l-2,2c-0.8,0.8-0.5,2,0,2.5c2.5,1.5,5.5,2.5,8.5,2.5s6-1,8.5-2.5c0.5-0.5,0.8-1.7,0-2.5l-2-2v-2c0-2-1.5-3.5-3.5-3.5z" fill="none" stroke="#7a621b" stroke-width="1.2"/>
  <circle cx="1545" cy="213" r="1.5" fill="none" stroke="#7a621b" stroke-width="1"/>
  <!-- App name -->
  <rect x="1572" y="196" width="70" height="6" rx="3" fill="#7a621b" opacity="0.5"/>
  <rect x="1650" y="196" width="40" height="6" rx="3" fill="#7a621b" opacity="0.2"/>
  <!-- Title line -->
  <rect x="1526" y="242" width="200" height="8" rx="4" fill="#7a621b" opacity="0.5"/>
  <!-- Body lines -->
  <rect x="1526" y="260" width="160" height="6" rx="3" fill="#7a621b" opacity="0.28"/>
  <rect x="1526" y="276" width="120" height="6" rx="3" fill="#7a621b" opacity="0.18"/>
  <!-- Second body line -->
  <rect x="1526" y="292" width="140" height="6" rx="3" fill="#7a621b" opacity="0.12"/>

  <!-- Red badge -->
  <circle cx="1748" cy="186" r="16" fill="#cc2200"/>
  <text x="1748" y="193" text-anchor="middle" font-family="sans-serif" font-size="16" font-weight="bold" fill="#fff">!</text>

  <!-- Faint content lines below notification -->
  <rect x="1516" y="330" width="180" height="5" rx="2.5" fill="#7a621b" opacity="0.08"/>
  <rect x="1516" y="345" width="220" height="5" rx="2.5" fill="#7a621b" opacity="0.06"/>
  <rect x="1516" y="360" width="140" height="5" rx="2.5" fill="#7a621b" opacity="0.04"/>
</svg>
