<svg xmlns="http://www.w3.org/2000/svg" viewBox="0 0 1920 800" width="1920" height="800">
  <defs>
    <radialGradient id="glow1" cx="50%" cy="30%" r="60%">
      <stop offset="0%" stop-color="#f3ba40" stop-opacity="0.18"/>
      <stop offset="50%" stop-color="#f3ba40" stop-opacity="0.06"/>
      <stop offset="100%" stop-color="#19171c" stop-opacity="0"/>
    </radialGradient>
    <radialGradient id="glow2" cx="20%" cy="70%" r="50%">
      <stop offset="0%" stop-color="#f4d157" stop-opacity="0.12"/>
      <stop offset="100%" stop-color="#19171c" stop-opacity="0"/>
    </radialGradient>
    <radialGradient id="glow3" cx="80%" cy="60%" r="45%">
      <stop offset="0%" stop-color="#ea9322" stop-opacity="0.10"/>
      <stop offset="100%" stop-color="#19171c" stop-opacity="0"/>
    </radialGradient>
    <radialGradient id="nodeGlow" cx="50%" cy="50%" r="50%">
      <stop offset="0%" stop-color="#f3ba40" stop-opacity="0.6"/>
      <stop offset="100%" stop-color="#f3ba40" stop-opacity="0"/>
    </radialGradient>
    <radialGradient id="nodeGlowSmall" cx="50%" cy="50%" r="50%">
      <stop offset="0%" stop-color="#f9c25b" stop-opacity="0.5"/>
      <stop offset="100%" stop-color="#f9c25b" stop-opacity="0"/>
    </radialGradient>
    <linearGradient id="lineFade" x1="0%" y1="0%" x2="100%" y2="100%">
      <stop offset="0%" stop-color="#f3ba40" stop-opacity="0.3"/>
      <stop offset="50%" stop-color="#f3ba40" stop-opacity="0.1"/>
      <stop offset="100%" stop-color="#f3ba40" stop-opacity="0"/>
    </linearGradient>
    <filter id="blur1">
      <feGaussianBlur stdDeviation="3"/>
    </filter>
    <filter id="blur2">
      <feGaussianBlur stdDeviation="6"/>
    </filter>
    <pattern id="grid" width="80" height="80" patternUnits="userSpaceOnUse">
      <path d="M 80 0 L 0 0 0 80" fill="none" stroke="#f3ba40" stroke-width="0.5" stroke-opacity="0.1"/>
    </pattern>
    <pattern id="gridSmall" width="20" height="20" patternUnits="userSpaceOnUse">
      <path d="M 20 0 L 0 0 0 20" fill="none" stroke="#f3ba40" stroke-width="0.3" stroke-opacity="0.08"/>
    </pattern>
  </defs>

  <rect width="1920" height="800" fill="#19171c"/>
  <rect width="1920" height="800" fill="url(#grid)"/>
  <rect width="1920" height="800" fill="url(#gridSmall)"/>
  <rect width="1920" height="800" fill="url(#glow1)"/>
  <rect width="1920" height="800" fill="url(#glow2)"/>
  <rect width="1920" height="800" fill="url(#glow3)"/>

  <g transform="translate(960, 320)">
    <ellipse rx="380" ry="160" fill="none" stroke="#f3ba40" stroke-width="1" stroke-opacity="0.12" transform="rotate(-5)"/>
    <ellipse rx="320" ry="135" fill="none" stroke="#f3ba40" stroke-width="0.8" stroke-opacity="0.15" transform="rotate(-5)"/>
    <ellipse rx="260" ry="110" fill="none" stroke="#f3ba40" stroke-width="1.2" stroke-opacity="0.2" transform="rotate(-5)"/>
    <ellipse rx="220" ry="50" fill="none" stroke="#f3ba40" stroke-width="1" stroke-opacity="0.2"/>
    <ellipse rx="220" ry="50" fill="none" stroke="#f3ba40" stroke-width="0.8" stroke-opacity="0.15" transform="rotate(10)"/>
    <ellipse rx="220" ry="50" fill="none" stroke="#f3ba40" stroke-width="0.8" stroke-opacity="0.15" transform="rotate(-10)"/>
    <ellipse rx="90" ry="300" fill="none" stroke="#f3ba40" stroke-width="0.8" stroke-opacity="0.12"/>
    <circle cx="0" cy="0" r="60" fill="url(#nodeGlow)" filter="url(#blur2)"/>
    <g fill="none" stroke="#f3ba40" stroke-linecap="round" stroke-linejoin="round" opacity="0.7">
      <path d="M0 -48c-14 0-25 11-25 25v10c0 4-3 10-7 14l-3 3c-2 2-1 5 1 6 11 6 23 9 34 9s23-3 34-9c2-1 3-4 1-6l-3-3c-4-4-7-10-7-14v-10c0-14-11-25-25-25z" stroke-width="4.5"/>
      <path d="M-16 -13c0 9 7 16 16 16s16-7 16-16" stroke-width="2.5" opacity="0.4"/>
    </g>
    <circle cx="32" cy="-32" r="3" fill="#19171c" stroke="none"/>
    <circle cx="32" cy="-32" r="7" fill="#f3ba40" stroke="none" opacity="0.6"/>
    <g fill="none" stroke="#f3ba40" stroke-linecap="round" opacity="0.15">
      <path d="M-35 -60 Q-50 -80 -35 -100" stroke-width="2"/>
      <path d="M-30 -62 Q-40 -85 -25 -110" stroke-width="1.5"/>
      <path d="M40 -58 Q55 -78 40 -98" stroke-width="2"/>
      <path d="M35 -60 Q45 -83 30 -108" stroke-width="1.5"/>
    </g>
  </g>

  <g stroke="url(#lineFade)" stroke-width="1.5" fill="none">
    <line x1="120" y1="80" x2="280" y2="120"/>
    <line x1="280" y1="120" x2="350" y2="200"/>
    <line x1="280" y1="120" x2="200" y2="260"/>
    <line x1="120" y1="80" x2="200" y2="260"/>
    <line x1="350" y1="200" x2="200" y2="260"/>
    <line x1="200" y1="260" x2="150" y2="380"/>
    <line x1="350" y1="200" x2="480" y2="180"/>
    <line x1="1600" y1="60" x2="1750" y2="100"/>
    <line x1="1750" y1="100" x2="1800" y2="220"/>
    <line x1="1750" y1="100" x2="1650" y2="250"/>
    <line x1="1600" y1="60" x2="1650" y2="250"/>
    <line x1="1800" y1="220" x2="1650" y2="250"/>
    <line x1="1650" y1="250" x2="1700" y2="400"/>
    <line x1="200" y1="580" x2="350" y2="620"/>
    <line x1="350" y1="620" x2="420" y2="700"/>
    <line x1="350" y1="620" x2="250" y2="720"/>
    <line x1="200" y1="580" x2="250" y2="720"/>
    <line x1="420" y1="700" x2="250" y2="720"/>
    <line x1="1550" y1="550" x2="1700" y2="600"/>
    <line x1="1700" y1="600" x2="1780" y2="700"/>
    <line x1="1700" y1="600" x2="1600" y2="720"/>
    <line x1="1550" y1="550" x2="1600" y2="720"/>
    <line x1="1780" y1="700" x2="1600" y2="720"/>
    <line x1="480" y1="180" x2="650" y2="280"/>
    <line x1="150" y1="380" x2="480" y2="180"/>
    <line x1="650" y1="280" x2="960" y2="320"/>
    <line x1="1300" y1="260" x2="1450" y2="300"/>
    <line x1="1700" y1="400" x2="1450" y2="300"/>
    <line x1="1450" y1="300" x2="960" y2="320"/>
    <line x1="480" y1="180" x2="350" y2="200"/>
  </g>

  <g filter="url(#blur1)">
    <circle cx="120" cy="80" r="10" fill="url(#nodeGlowSmall)"/>
    <circle cx="280" cy="120" r="8" fill="url(#nodeGlowSmall)"/>
    <circle cx="350" cy="200" r="12" fill="url(#nodeGlowSmall)"/>
    <circle cx="200" cy="260" r="9" fill="url(#nodeGlowSmall)"/>
    <circle cx="150" cy="380" r="7" fill="url(#nodeGlowSmall)"/>
    <circle cx="480" cy="180" r="10" fill="url(#nodeGlowSmall)"/>
    <circle cx="1600" cy="60" r="9" fill="url(#nodeGlowSmall)"/>
    <circle cx="1750" cy="100" r="8" fill="url(#nodeGlowSmall)"/>
    <circle cx="1800" cy="220" r="11" fill="url(#nodeGlowSmall)"/>
    <circle cx="1650" cy="250" r="10" fill="url(#nodeGlowSmall)"/>
    <circle cx="1700" cy="400" r="7" fill="url(#nodeGlowSmall)"/>
    <circle cx="1450" cy="300" r="9" fill="url(#nodeGlowSmall)"/>
    <circle cx="200" cy="580" r="8" fill="url(#nodeGlowSmall)"/>
    <circle cx="350" cy="620" r="10" fill="url(#nodeGlowSmall)"/>
    <circle cx="420" cy="700" r="7" fill="url(#nodeGlowSmall)"/>
    <circle cx="250" cy="720" r="9" fill="url(#nodeGlowSmall)"/>
    <circle cx="1550" cy="550" r="9" fill="url(#nodeGlowSmall)"/>
    <circle cx="1700" cy="600" r="11" fill="url(#nodeGlowSmall)"/>
    <circle cx="1780" cy="700" r="7" fill="url(#nodeGlowSmall)"/>
    <circle cx="1600" cy="720" r="8" fill="url(#nodeGlowSmall)"/>
    <circle cx="650" cy="280" r="8" fill="url(#nodeGlowSmall)"/>
    <circle cx="1300" cy="260" r="8" fill="url(#nodeGlowSmall)"/>
  </g>

  <g fill="#f3ba40" opacity="0.7">
    <circle cx="120" cy="80" r="2"/>
    <circle cx="280" cy="120" r="2"/>
    <circle cx="350" cy="200" r="2.5"/>
    <circle cx="200" cy="260" r="2"/>
    <circle cx="150" cy="380" r="2"/>
    <circle cx="480" cy="180" r="2"/>
    <circle cx="1600" cy="60" r="2"/>
    <circle cx="1750" cy="100" r="2"/>
    <circle cx="1800" cy="220" r="2.5"/>
    <circle cx="1650" cy="250" r="2"/>
    <circle cx="1700" cy="400" r="2"/>
    <circle cx="1450" cy="300" r="2"/>
    <circle cx="200" cy="580" r="2"/>
    <circle cx="350" cy="620" r="2"/>
    <circle cx="420" cy="700" r="2"/>
    <circle cx="250" cy="720" r="2"/>
    <circle cx="1550" cy="550" r="2"/>
    <circle cx="1700" cy="600" r="2.5"/>
    <circle cx="1780" cy="700" r="2"/>
    <circle cx="1600" cy="720" r="2"/>
    <circle cx="650" cy="280" r="2"/>
    <circle cx="1300" cy="260" r="2"/>
  </g>

  <g fill="#f9c25b" opacity="0.35">
    <circle cx="50" cy="180" r="1.5"/>
    <circle cx="180" cy="50" r="1.5"/>
    <circle cx="400" cy="100" r="1.2"/>
    <circle cx="550" cy="400" r="1.5"/>
    <circle cx="700" cy="150" r="1.2"/>
    <circle cx="800" cy="500" r="1.5"/>
    <circle cx="1100" cy="180" r="1.2"/>
    <circle cx="1250" cy="500" r="1.5"/>
    <circle cx="1400" cy="100" r="1.2"/>
    <circle cx="1850" cy="350" r="1.5"/>
    <circle cx="1750" cy="480" r="1.2"/>
    <circle cx="500" cy="650" r="1.5"/>
    <circle cx="900" cy="700" r="1.2"/>
    <circle cx="1300" cy="650" r="1.5"/>
    <circle cx="1500" cy="750" r="1.2"/>
    <circle cx="300" cy="450" r="1.5"/>
    <circle cx="750" cy="380" r="1.2"/>
    <circle cx="1150" cy="420" r="1.5"/>
    <circle cx="850" cy="220" r="1.2"/>
    <circle cx="100" cy="500" r="1.5"/>
    <circle cx="1880" cy="50" r="1.2"/>
    <circle cx="30" cy="700" r="1.5"/>
  </g>
</svg>
